<?xml version="1.0" encoding="utf-8"?>
<!-- Generator: Adobe Illustrator 17.0.0, SVG Export Plug-In . SVG Version: 6.00 Build 0)  -->
<!DOCTYPE svg PUBLIC "-//W3C//DTD SVG 1.1//EN" "http://www.w3.org/Graphics/SVG/1.1/DTD/svg11.dtd">
<svg version="1.1" id="Layer_1" xmlns="http://www.w3.org/2000/svg" xmlns:xlink="http://www.w3.org/1999/xlink" x="0px" y="0px"
	 width="439.993px" height="353.735px" viewBox="0 0 439.993 353.735" enable-background="new 0 0 439.993 353.735"
	 xml:space="preserve">
<path fill="none" d="M-0.552,110.517c0,38.735-0.181,76.323,0.113,113.908c0.086,10.972,6.07,19.039,16.889,21.175
	c7.348,1.451,8.294,4.819,8.203,11.19c-0.327,22.736-0.14,45.48-0.108,68.222c0.029,20.907,12.859,31.714,33.39,28.003
	c19.211-3.473,38.422-6.959,57.579-10.713c90.469-17.729,180.918-35.556,271.377-53.337c22.289-4.381,25.832-8.481,25.932-31.277
	c0.027-6.25,0.093-10.532,8.302-12.429c10.295-2.379,16.317-9.883,15.661-21.679c-0.586-10.557-0.262-21.168-0.25-31.755
	c0.009-8.506-3.896-15.075-12.005-16.65c-10.13-1.967-20.945-3.907-30.92-2.356c-15.243,2.37-19.371,9-19.695,24.394
	c-0.174,8.231,0.203,16.475-0.027,24.703c-0.357,12.763,5.539,20.66,17.688,24.304c2.342,0.703,5.455,1.935,6.359,3.814
	c4.952,10.285-0.977,23.079-12.197,25.502c-25.596,5.527-51.301,10.553-76.991,15.639c-55.932,11.072-111.872,22.099-167.827,33.054
	c-26.862,5.259-53.742,10.434-80.657,15.411c-15.053,2.784-21.381-2.494-21.481-17.712c-0.142-21.566,0.019-43.133-0.065-64.699
	c-0.022-5.752-0.014-9.89,7.784-11.672c11.042-2.522,16.34-10.916,16.252-22.742c-0.254-34.505-0.138-69.012-0.271-103.517
	c-0.012-2.989-0.792-5.975-1.171-8.651c-4.584,0-8.328,0-12.978,0c0,35.91,0.057,71.14-0.03,106.369
	c-0.032,13.088-4.965,17.846-17.683,17.634c-11.887-0.198-15.869-4.625-16.054-17.928c-0.054-3.921,0.016-7.843,0.016-11.764
	c0.002-31.297,0.001-62.594,0.001-94.44C9.373,110.517,5.209,110.517-0.552,110.517z"/>
<path fill="none" d="M388.397,261.438c-0.495-1.149-0.991-2.299-1.486-3.448c-112.634,18.998-225.321,25.448-338.365-0.112
	c0,18.966,0.055,35.803-0.016,52.64c-0.071,16.719,4.507,20.384,21.43,17.036c54.376-10.757,108.772-21.41,163.128-32.265
	c47.473-9.48,94.915-19.116,142.33-28.883C379.896,265.483,384.078,263.128,388.397,261.438z"/>
<path fill="none" d="M271.684,245.735c0-39.312,0.006-77.316-0.004-115.319c-0.003-11.298-7.083-18.398-16.737-19.681
	c-10.909-1.45-22.312,0.787-33.497,1.467c-2.908,0.177-5.848,0.985-8.699,0.718c-9.994-0.935-19.976-3.288-29.925-3.101
	c-13.956,0.263-21.444,8.121-21.754,22.277c-0.601,27.433-0.465,54.882-0.6,82.325c-0.051,10.428-0.008,20.857-0.008,31.94
	c5.607-0.312,9.712-0.54,14.613-0.813c0-36.853-0.118-72.896,0.073-108.938c0.056-10.545,5.6-15.226,16.603-15.189
	c11.272,0.037,16.589,4.518,16.741,14.896c0.241,16.469,0.105,32.944,0.113,49.416c0.009,19.896,0.002,39.792,0.002,59.642
	c5.561,0,10.008,0,15.555,0c0-5.775,0.003-10.821-0.001-15.868c-0.025-30.591-0.156-61.182-0.025-91.772
	c0.052-12.216,7.906-18.313,19.799-16.135c9.715,1.779,13.665,7.44,13.578,17.291c-0.278,31.373-0.105,62.751-0.107,94.127
	c0,4.153,0,8.307,0,12.716C262.794,245.735,266.603,245.735,271.684,245.735z"/>
<path fill="none" d="M306.253,171.148c0-21.246,0-40.99,0-60.519c-5.576,0-9.75,0-14.236,0c0,45.416,0,90.208,0,134.94
	c5.173,0,9.344,0,14.916,0c0-20.284,0-40.027,0-59.829c12.926,0,24.434,0,36.558,0c0,20.312,0,39.825,0,59.852
	c5.124,0,9.613,0,14.239,0c0-45.442,0-90.285,0-135.129c-5.093,0-9.284,0-14.454,0c0,20.305,0,40.089,0,60.684
	c-3.237,0-5.533,0-7.828,0C326.47,171.148,317.493,171.148,306.253,171.148z"/>
<path fill="none" d="M147.5,134.937c-3.193-7.705-4.232-14.795-8.268-19.021c-9.074-9.5-38.693-10.026-48.344-0.934
	c-4.028,3.795-7.343,10.489-7.458,15.94c-0.661,31.299-0.342,62.622-0.187,93.935c0.057,11.483,7.422,19.933,19.093,21.16
	c7.732,0.813,15.68,0.847,23.415,0.069c14.44-1.451,20.252-9.725,18.411-25.064c-4.173,0-8.367,0-12.415,0
	c-3.658,10.527-11.289,15.16-21.373,13.334c-9.724-1.761-13.274-7.355-13.06-17.349c0.546-25.432,0.377-50.887,0.03-76.326
	c-0.131-9.582,1.445-17.721,12.455-19.084c10.358-1.282,19.622,0.814,21.928,13.338C135.991,134.937,139.822,134.937,147.5,134.937z
	"/>
<path fill="#234191" d="M271.684,245.735c-5.081,0-8.89,0-14.28,0c0-4.409,0-8.563,0-12.716c0.001-31.376-0.172-62.753,0.107-94.127
	c0.087-9.851-3.863-15.512-13.578-17.291c-11.894-2.178-19.747,3.919-19.799,16.135c-0.131,30.59,0,61.181,0.025,91.772
	c0.004,5.046,0.001,10.093,0.001,15.868c-5.547,0-9.995,0-15.555,0c0-19.851,0.007-39.747-0.002-59.642
	c-0.008-16.472,0.128-32.947-0.113-49.416c-0.152-10.378-5.469-14.858-16.741-14.896c-11.002-0.037-16.547,4.644-16.603,15.189
	c-0.191,36.041-0.073,72.084-0.073,108.938c-4.901,0.273-9.006,0.501-14.613,0.813c0-11.082-0.043-21.511,0.008-31.94
	c0.135-27.443-0.001-54.892,0.6-82.325c0.31-14.157,7.798-22.015,21.754-22.277c9.949-0.187,19.931,2.166,29.925,3.101
	c2.852,0.267,5.791-0.541,8.699-0.718c11.185-0.681,22.588-2.917,33.497-1.467c9.654,1.283,16.735,8.384,16.737,19.681
	C271.69,168.419,271.684,206.423,271.684,245.735z"/>
<path fill="#234191" d="M306.253,171.148c11.24,0,20.217,0,29.194,0c2.295,0,4.591,0,7.828,0c0-20.595,0-40.379,0-60.684
	c5.17,0,9.361,0,14.454,0c0,44.844,0,89.688,0,135.129c-4.626,0-9.115,0-14.239,0c0-20.027,0-39.54,0-59.852
	c-12.124,0-23.631,0-36.558,0c0,19.802,0,39.544,0,59.829c-5.572,0-9.743,0-14.916,0c0-44.732,0-89.525,0-134.94
	c4.487,0,8.66,0,14.236,0C306.253,130.159,306.253,149.903,306.253,171.148z"/>
<path fill="#234191" d="M147.5,134.937c-7.678,0-11.509,0-15.774,0c-2.305-12.524-11.569-14.62-21.928-13.338
	c-11.01,1.362-12.586,9.501-12.455,19.084c0.347,25.439,0.516,50.894-0.03,76.326c-0.214,9.995,3.336,15.588,13.06,17.349
	c10.084,1.826,17.715-2.807,21.373-13.334c4.048,0,8.243,0,12.415,0c1.841,15.339-3.972,23.612-18.411,25.064
	c-7.735,0.777-15.683,0.744-23.415-0.069c-11.672-1.227-19.036-9.678-19.093-21.16c-0.155-31.314-0.474-62.636,0.187-93.935
	c0.115-5.451,3.43-12.145,7.458-15.94c9.65-9.092,39.27-8.566,48.344,0.934C143.268,120.142,144.307,127.232,147.5,134.937z"/>
<g>
	<path fill="#2985C7" d="M41.099,89.839c0-6.061,5.016-10.975,11.203-10.975L390.339,15.19c6.187,0,11.203,4.914,11.203,10.975
		v136.898h12.817V12c0-6.627-5.373-12-12-12L40.282,69.62c-6.627,0-12,5.373-12,12v18.249h12.816V89.839z"/>
</g>
<path fill="#234191" d="M386.911,257.99l-2.199,0.363c-111.902,18.711-223.858,24.919-336.166-0.475
	c0,18.966,0.055,35.803-0.016,52.64c-0.071,16.719,4.507,20.384,21.43,17.036c54.376-10.757,108.772-21.41,163.128-32.265
	c47.249-9.435,94.468-19.025,141.659-28.745l0,0.001c0,0,13.652-2.387,13.65-2.252C388.395,264.427,390.696,258.759,386.911,257.99z
	"/>
<path fill="#2985C7" d="M391.253,45.442c0.071-16.719-4.507-20.384-21.43-17.036c-54.376,10.757-108.772,21.41-163.128,32.265
	c-47.473,9.48-94.915,19.116-142.33,28.883c-0.402,0.083-0.8,0.189-1.198,0.294l0.02-0.015l-11.801,2.12
	c0,0-2.838,3.202,1.486,6.018c112.634-18.998,225.321-25.448,338.365,0.112C391.238,79.117,391.182,62.279,391.253,45.442z"/>
<path fill="#234191" d="M439.993,223.579c-0.587-10.557-0.262-21.168-0.25-31.755c0.009-8.506-3.896-15.075-12.005-16.65
	c-10.13-1.967-20.945-3.907-30.92-2.356c-15.243,2.37-19.37,9-19.695,24.394c-0.174,8.231,0.203,16.475-0.027,24.703
	c-0.357,12.763,5.539,20.66,17.688,24.304c2.342,0.703,5.455,1.935,6.359,3.814c4.951,10.285-0.977,23.079-12.197,25.502
	c-25.596,5.527-51.301,10.553-76.991,15.639c-55.932,11.072-111.872,22.099-167.827,33.054
	c-26.862,5.259-53.742,10.434-80.657,15.411c-15.053,2.784-21.381-2.494-21.481-17.712c-0.142-21.566,0.019-43.133-0.065-64.699
	c-0.022-5.752-0.014-9.89,7.784-11.672c11.042-2.522,16.34-10.916,16.252-22.742c-0.247-33.436-0.149-66.874-0.264-100.311h0.004
	v-11.857H64.52c-0.493,0-0.972,0-1.448,0c-3.948,0-7.38,0-11.53,0c0,35.91,0.057,71.14-0.03,106.369
	c-0.032,13.088-4.965,17.846-17.683,17.634c-11.887-0.198-15.869-4.625-16.054-17.928c-0.054-3.921,0.016-7.843,0.016-11.764
	c0.002-31.297,0.001-62.594,0.001-94.44c-5.213,0-9.377,0-15.137,0c0,38.735-0.181,76.323,0.113,113.908
	c0.086,10.972,6.07,19.039,16.889,21.175c7.348,1.451,8.294,4.819,8.203,11.19c-0.327,22.736-0.14,45.48-0.108,68.222
	c0.029,20.907,12.859,31.714,33.39,28.003c19.211-3.473,38.422-6.959,57.579-10.713c90.469-17.729,180.918-35.556,271.377-53.337
	c22.289-4.381,25.833-8.481,25.932-31.277c0.027-6.25,0.093-10.532,8.302-12.429C434.627,242.878,440.648,235.374,439.993,223.579z
	 M425.62,215.566c-0.105,14.101-4.767,19.192-17.46,19.115c-12.662-0.076-15.989-3.923-16.016-18.523c-0.004-2.342,0-4.684,0-7.027
	c0.024,0,0.049,0,0.073,0c0-3.123,0.177-6.258-0.032-9.366c-0.753-11.228,5.157-15.426,15.596-15.396
	c13.106,0.037,17.519,3.823,17.837,15.974C425.75,205.413,425.658,210.491,425.62,215.566z"/>
</svg>
