<?xml version="1.0" encoding="utf-8"?>
<!-- Generator: Adobe Illustrator 17.0.0, SVG Export Plug-In . SVG Version: 6.00 Build 0)  -->
<!DOCTYPE svg PUBLIC "-//W3C//DTD SVG 1.1//EN" "http://www.w3.org/Graphics/SVG/1.1/DTD/svg11.dtd">
<svg version="1.1" id="Layer_1" xmlns="http://www.w3.org/2000/svg" xmlns:xlink="http://www.w3.org/1999/xlink" x="0px" y="0px"
	 width="1611.025px" height="792px" viewBox="0 0 1611.025 792" enable-background="new 0 0 1611.025 792" xml:space="preserve">
<g id="Colors">
	<rect x="512.333" y="30.333" fill="#E99723" stroke="#000000" stroke-miterlimit="10" width="63.333" height="62"/>
	<rect x="575.667" y="30.333" fill="#E76124" stroke="#000000" stroke-miterlimit="10" width="63.333" height="62"/>
	<rect x="449" y="30.333" fill="#FFCC56" stroke="#000000" stroke-miterlimit="10" width="63.333" height="62"/>
</g>
<g id="status">
	<rect x="128.333" y="202.333" fill="#FFFFFF" stroke="#000000" stroke-miterlimit="10" width="344" height="19.333"/>
	<text transform="matrix(1 0 0 1 138.6667 215.6665)" font-family="'MyriadPro-Bold'" font-size="10">13 /02/23</text>
	<text transform="matrix(1 0 0 1 201.3333 215.6665)" font-family="'MyriadPro-Bold'" font-size="10">AC 1ro.</text>
	<text transform="matrix(1 0 0 1 240.3333 215.6665)" font-family="'MyriadPro-Bold'" font-size="10">Mat: 27.</text>
</g>
<g id="group_list_2_">
	<g id="list_7_">
		<rect x="131.243" y="473.923" fill="#FFFFFF" stroke="#000000" stroke-miterlimit="10" width="337.555" height="42.043"/>
		<text transform="matrix(1 0 0 1 143.9776 498.5547)" font-family="'MyriadPro-Regular'" font-size="13.3405">Adrian J Garcia Dominguez</text>
		<rect x="393.354" y="486.657" fill="none" stroke="#000000" stroke-miterlimit="10" width="17.888" height="17.585"/>
		<rect x="438.984" y="486.152" fill="none" stroke="#000000" stroke-miterlimit="10" width="17.888" height="17.585"/>
		<text transform="matrix(1 0 0 1 398.0537 499.3643)" font-family="'MyriadPro-Bold'" font-size="13.3405">4</text>
		<polyline fill="none" stroke="#FCB32A" stroke-width="3" stroke-linecap="round" stroke-miterlimit="10" points="441.511,495.45 
			445.958,498.555 455.255,491.913 		"/>
	</g>
	<g id="list_6_">
		<rect x="131.243" y="515.966" fill="#FFFFFF" stroke="#000000" stroke-miterlimit="10" width="337.555" height="42.043"/>
		<text transform="matrix(1 0 0 1 143.9776 540.5974)" font-family="'MyriadPro-Regular'" font-size="13.3405">Adrian J Garcia Dominguez</text>
		<rect x="393.354" y="528.7" fill="none" stroke="#000000" stroke-miterlimit="10" width="17.888" height="17.585"/>
		<rect x="438.984" y="528.195" fill="none" stroke="#000000" stroke-miterlimit="10" width="17.888" height="17.585"/>
		<text transform="matrix(1 0 0 1 398.0537 541.407)" font-family="'MyriadPro-Bold'" font-size="13.3405">4</text>
		<polyline fill="none" stroke="#FCB32A" stroke-width="3" stroke-linecap="round" stroke-miterlimit="10" points="441.511,537.493 
			445.958,540.598 455.255,533.956 		"/>
	</g>
	<g id="list_5_">
		<rect x="131.243" y="431.881" fill="#FFFFFF" stroke="#000000" stroke-miterlimit="10" width="337.555" height="42.043"/>
		<text transform="matrix(1 0 0 1 143.9776 456.5119)" font-family="'MyriadPro-Regular'" font-size="13.3405">Adrian J Garcia Dominguez</text>
		<rect x="393.354" y="444.615" fill="none" stroke="#000000" stroke-miterlimit="10" width="17.888" height="17.585"/>
		<rect x="438.984" y="444.109" fill="none" stroke="#000000" stroke-miterlimit="10" width="17.888" height="17.585"/>
		<text transform="matrix(1 0 0 1 398.0537 457.3215)" font-family="'MyriadPro-Bold'" font-size="13.3405">4</text>
		<polyline fill="none" stroke="#FCB32A" stroke-width="3" stroke-linecap="round" stroke-miterlimit="10" points="441.511,453.407 
			445.958,456.512 455.255,449.87 		"/>
	</g>
	<g id="list_4_">
		<rect x="131.243" y="389.838" fill="#FFFFFF" stroke="#000000" stroke-miterlimit="10" width="337.555" height="42.043"/>
		<text transform="matrix(1 0 0 1 143.9776 414.4691)" font-family="'MyriadPro-Regular'" font-size="13.3405">Adrian J Garcia Dominguez</text>
		<rect x="393.354" y="402.572" fill="none" stroke="#000000" stroke-miterlimit="10" width="17.888" height="17.585"/>
		<rect x="438.984" y="402.067" fill="none" stroke="#000000" stroke-miterlimit="10" width="17.888" height="17.585"/>
		<text transform="matrix(1 0 0 1 398.0537 415.2787)" font-family="'MyriadPro-Bold'" font-size="13.3405">4</text>
		<polyline fill="none" stroke="#FCB32A" stroke-width="3" stroke-linecap="round" stroke-miterlimit="10" points="441.511,411.364 
			445.958,414.469 455.255,407.827 		"/>
	</g>
	<g id="group_list_3_">
		<g id="list_11_">
			<rect x="131.243" y="642.094" fill="#FFFFFF" stroke="#000000" stroke-miterlimit="10" width="337.555" height="42.043"/>
			<text transform="matrix(1 0 0 1 143.9776 666.7257)" font-family="'MyriadPro-Regular'" font-size="13.3405">Adrian J Garcia Dominguez</text>
			<rect x="393.354" y="654.828" fill="none" stroke="#000000" stroke-miterlimit="10" width="17.888" height="17.585"/>
			<rect x="438.984" y="654.323" fill="none" stroke="#000000" stroke-miterlimit="10" width="17.888" height="17.585"/>
			<text transform="matrix(1 0 0 1 398.0537 667.5354)" font-family="'MyriadPro-Bold'" font-size="13.3405">4</text>
			<polyline fill="none" stroke="#FCB32A" stroke-width="3" stroke-linecap="round" stroke-miterlimit="10" points="
				441.511,663.621 445.958,666.726 455.255,660.084 			"/>
		</g>
		<g id="list_10_">
			<rect x="131.243" y="684.137" fill="#FFFFFF" stroke="#000000" stroke-miterlimit="10" width="337.555" height="42.043"/>
			<text transform="matrix(1 0 0 1 143.9776 708.7686)" font-family="'MyriadPro-Regular'" font-size="13.3405">Adrian J Garcia Dominguez</text>
			<rect x="393.354" y="696.871" fill="none" stroke="#000000" stroke-miterlimit="10" width="17.888" height="17.585"/>
			<rect x="438.984" y="696.366" fill="none" stroke="#000000" stroke-miterlimit="10" width="17.888" height="17.585"/>
			<text transform="matrix(1 0 0 1 398.0537 709.5781)" font-family="'MyriadPro-Bold'" font-size="13.3405">4</text>
			<polyline fill="none" stroke="#FCB32A" stroke-width="3" stroke-linecap="round" stroke-miterlimit="10" points="
				441.511,705.664 445.958,708.769 455.255,702.127 			"/>
		</g>
		<g id="list_9_">
			<rect x="131.243" y="600.052" fill="#FFFFFF" stroke="#000000" stroke-miterlimit="10" width="337.555" height="42.043"/>
			<text transform="matrix(1 0 0 1 143.9776 624.683)" font-family="'MyriadPro-Regular'" font-size="13.3405">Adrian J Garcia Dominguez</text>
			<rect x="393.354" y="612.786" fill="none" stroke="#000000" stroke-miterlimit="10" width="17.888" height="17.585"/>
			<rect x="438.984" y="612.28" fill="none" stroke="#000000" stroke-miterlimit="10" width="17.888" height="17.585"/>
			<text transform="matrix(1 0 0 1 398.0537 625.4926)" font-family="'MyriadPro-Bold'" font-size="13.3405">4</text>
			<polyline fill="none" stroke="#FCB32A" stroke-width="3" stroke-linecap="round" stroke-miterlimit="10" points="
				441.511,621.578 445.958,624.683 455.255,618.041 			"/>
		</g>
		<g id="list_8_">
			<rect x="131.243" y="558.009" fill="#FFFFFF" stroke="#000000" stroke-miterlimit="10" width="337.555" height="42.043"/>
			<text transform="matrix(1 0 0 1 143.9776 582.6402)" font-family="'MyriadPro-Regular'" font-size="13.3405">Adrian J Garcia Dominguez</text>
			<rect x="393.354" y="570.743" fill="none" stroke="#000000" stroke-miterlimit="10" width="17.888" height="17.585"/>
			<rect x="438.984" y="570.238" fill="none" stroke="#000000" stroke-miterlimit="10" width="17.888" height="17.585"/>
			<text transform="matrix(1 0 0 1 398.0537 583.4498)" font-family="'MyriadPro-Bold'" font-size="13.3405">4</text>
			<polyline fill="none" stroke="#FCB32A" stroke-width="3" stroke-linecap="round" stroke-miterlimit="10" points="
				441.511,579.536 445.958,582.64 455.255,575.998 			"/>
		</g>
	</g>
	<g id="group_list_1_">
		<g id="list_3_">
			<rect x="131.243" y="305.752" fill="#FFFFFF" stroke="#000000" stroke-miterlimit="10" width="337.555" height="42.043"/>
			<text transform="matrix(1 0 0 1 143.9776 330.3836)" font-family="'MyriadPro-Regular'" font-size="13.3405">Adrian J Garcia Dominguez</text>
			<rect x="393.354" y="318.486" fill="none" stroke="#000000" stroke-miterlimit="10" width="17.888" height="17.585"/>
			<rect x="438.984" y="317.981" fill="none" stroke="#000000" stroke-miterlimit="10" width="17.888" height="17.585"/>
			<text transform="matrix(1 0 0 1 398.0537 331.1932)" font-family="'MyriadPro-Bold'" font-size="13.3405">4</text>
			<polyline fill="none" stroke="#FCB32A" stroke-width="3" stroke-linecap="round" stroke-miterlimit="10" points="
				441.511,327.279 445.958,330.384 455.255,323.742 			"/>
		</g>
		<g id="list_2_">
			<rect x="131.243" y="347.795" fill="#FFFFFF" stroke="#000000" stroke-miterlimit="10" width="337.555" height="42.043"/>
			<text transform="matrix(1 0 0 1 143.9776 372.4263)" font-family="'MyriadPro-Regular'" font-size="13.3405">Adrian J Garcia Dominguez</text>
			<rect x="393.354" y="360.529" fill="none" stroke="#000000" stroke-miterlimit="10" width="17.888" height="17.585"/>
			<rect x="438.984" y="360.024" fill="none" stroke="#000000" stroke-miterlimit="10" width="17.888" height="17.585"/>
			<text transform="matrix(1 0 0 1 398.0537 373.236)" font-family="'MyriadPro-Bold'" font-size="13.3405">4</text>
			<polyline fill="none" stroke="#FCB32A" stroke-width="3" stroke-linecap="round" stroke-miterlimit="10" points="
				441.511,369.322 445.958,372.426 455.255,365.784 			"/>
		</g>
		<g id="list_1_">
			<rect x="131.243" y="263.709" fill="#FFFFFF" stroke="#000000" stroke-miterlimit="10" width="337.555" height="42.043"/>
			<text transform="matrix(1 0 0 1 143.9776 288.3408)" font-family="'MyriadPro-Regular'" font-size="13.3405">Adrian J Garcia Dominguez</text>
			<rect x="393.354" y="276.444" fill="none" stroke="#000000" stroke-miterlimit="10" width="17.888" height="17.585"/>
			<rect x="438.984" y="275.938" fill="none" stroke="#000000" stroke-miterlimit="10" width="17.888" height="17.585"/>
			<text transform="matrix(1 0 0 1 398.0537 289.1504)" font-family="'MyriadPro-Bold'" font-size="13.3405">4</text>
			<polyline fill="none" stroke="#FCB32A" stroke-width="3" stroke-linecap="round" stroke-miterlimit="10" points="
				441.511,285.236 445.958,288.341 455.255,281.699 			"/>
		</g>
		<g id="list">
			<rect x="131.243" y="221.667" fill="#FFFFFF" stroke="#000000" stroke-miterlimit="10" width="337.555" height="42.043"/>
			<text transform="matrix(1 0 0 1 143.9776 246.298)" font-family="'MyriadPro-Regular'" font-size="13.3405">Adrian J Garcia Dominguez</text>
			<rect x="393.354" y="234.401" fill="none" stroke="#000000" stroke-miterlimit="10" width="17.888" height="17.585"/>
			<rect x="438.984" y="233.895" fill="none" stroke="#000000" stroke-miterlimit="10" width="17.888" height="17.585"/>
			<text transform="matrix(1 0 0 1 398.0537 247.1077)" font-family="'MyriadPro-Bold'" font-size="13.3405">4</text>
			<polyline fill="none" stroke="#FCB32A" stroke-width="3" stroke-linecap="round" stroke-miterlimit="10" points="
				441.511,243.193 445.958,246.298 455.255,239.656 			"/>
		</g>
	</g>
</g>
<g id="Base">
	<rect x="128.333" y="165" fill="#E99723" width="344" height="37.333"/>
	<text transform="matrix(1 0 0 1 187.5 188)" fill="#FFFFFF" font-family="'MyriadPro-Bold'" font-size="13">School</text>
	<rect x="128.333" y="145" fill="#E76124" width="345.333" height="23.333"/>
	<path stroke="#000000" stroke-miterlimit="10" d="M466.14,127.165H133.901c-6.167,0-11.167,5.373-11.167,12v578.532
		c0,6.627,5,12,11.167,12H466.14c6.167,0,11.167-5.373,11.167-12V139.165C477.307,132.537,472.307,127.165,466.14,127.165z
		 M468.798,704.079c0,6.162-4.76,11.157-10.631,11.157H141.875c-5.872,0-10.631-4.995-10.631-11.157V166.17
		c0-6.162,4.76-11.157,10.631-11.157h316.292c5.871,0,10.631,4.995,10.631,11.157V704.079z"/>
	<g id="hamburger">
		<rect x="141.25" y="173.62" fill="#FFFFFF" width="21.5" height="3.359"/>
		<rect x="141.25" y="182.078" fill="#FFFFFF" width="21.5" height="3.359"/>
		<rect x="141.25" y="190.354" fill="#FFFFFF" width="21.5" height="3.359"/>
	</g>
</g>
<g id="Base_1_">
	<rect x="566.311" y="165" fill="#E99723" width="344" height="37.333"/>
	<text transform="matrix(1 0 0 1 625.4781 188)" fill="#FFFFFF" font-family="'MyriadPro-Bold'" font-size="13">School</text>
	<rect x="566.311" y="145" fill="#E76124" width="345.333" height="23.333"/>
	<path stroke="#000000" stroke-miterlimit="10" d="M904.118,127.165H571.88c-6.167,0-11.167,5.373-11.167,12v578.532
		c0,6.627,5,12,11.167,12h332.238c6.167,0,11.167-5.373,11.167-12V139.165C915.285,132.537,910.285,127.165,904.118,127.165z
		 M906.776,704.079c0,6.162-4.76,11.157-10.631,11.157H579.853c-5.872,0-10.631-4.995-10.631-11.157V166.17
		c0-6.162,4.76-11.157,10.631-11.157h316.292c5.871,0,10.631,4.995,10.631,11.157V704.079z"/>
	<g id="hamburger_1_">
		<rect x="579.228" y="173.62" fill="#FFFFFF" width="21.5" height="3.359"/>
		<rect x="579.228" y="182.078" fill="#FFFFFF" width="21.5" height="3.359"/>
		<rect x="579.228" y="190.354" fill="#FFFFFF" width="21.5" height="3.359"/>
	</g>
</g>
<path fill="#FFFFFF" stroke="#000000" stroke-miterlimit="10" d="M569.221,703.016c0,6.749,5.297,12.22,11.832,12.22h181.115
	c6.535,0,11.832-5.471,11.832-12.22V202.333H569.221V703.016z"/>
<path fill="#E99723" d="M766.87,169.333c4.194,1.863,7.13,6.137,7.13,11.117v-11.117H766.87z"/>
<path fill="#FFCC56" stroke="#000000" stroke-miterlimit="10" d="M766.87,169.22c-1.442-0.568-3.03-0.887-4.702-0.887H581.053
	c-1.672,0-3.26,0.319-4.702,0.887c-4.194,1.653-7.13,5.443-7.13,9.86v23.253H774v-23.253C774,174.664,771.064,170.873,766.87,169.22
	z"/>
</svg>
